<?xml version="1.0" encoding="utf-8"?>
<!-- Generator: Adobe Illustrator 16.0.0, SVG Export Plug-In . SVG Version: 6.00 Build 0)  -->
<!DOCTYPE svg PUBLIC "-//W3C//DTD SVG 1.1//EN" "http://www.w3.org/Graphics/SVG/1.1/DTD/svg11.dtd">
<svg version="1.1" id="Layer_1" xmlns="http://www.w3.org/2000/svg" xmlns:xlink="http://www.w3.org/1999/xlink" x="0px" y="0px"
	 width="1100px" height="350px" viewBox="0 0 1100 350" enable-background="new 0 0 1100 350" xml:space="preserve">
<g transform="translate(0.000000,350.000000) scale(0.100000,-0.100000)">
	<path fill="#083DFF" d="M1817.002,3282.002C1793.999,3261.001,1443.999,2945,1040,2580
		c-403.999-363.999-742.998-671.001-752.002-682.002c-21.997-25-22.998-51.997-1.997-71.997c12.998-13.999,48.999-16.001,235-16.001
		H740v-640V530h795h795v1197.998V2925l-171.001,155c-232.998,210-267.998,240-285,240
		C1866.001,3320,1841.001,3302.998,1817.002,3282.002z M1097.998,2166.001c15-8.003,124.004-113.003,243.003-233.003
		c231.001-232.002,241.997-247.998,220-315.996c-17.002-50-415-442.002-458.003-452.002c-63.999-12.998-135,29.004-151.997,90.996
		c-17.002,63.008,0,90,157.998,248.008L1260,1655l-165,165c-170,170-192.998,202.002-180,260c7.998,36.001,41.001,78.999,68.999,90
		C1017.002,2182.998,1067.998,2181.001,1097.998,2166.001z M2230,1230v-90h-260h-260v90v90h260h260V1230z"/>
	<path fill="#083DFF" d="M2810,1510.996V530h110h110v305v305h290h290v85v85h-290h-290v240v240h340h340v85v85h-156.001h-156.001
		L3356,1997.998c-23.999,20-156.001,140-293.999,265L2810,2491.001V1510.996z"/>
	<path fill="#083DFF" d="M5540,1955c-210.996-42.998-375-166.001-465-349.004c-57.002-115-75-183.994-82.002-315.996
		C4967.998,820.996,5275,499.004,5725,522.998c127.998,7.002,192.998,22.998,290,71.006c72.002,35.996,175,117.998,175,140
		c0,17.998-92.998,105.996-112.001,105.996c-8.994,0-35-15.996-58.994-35.996c-58.008-49.004-109.004-73.008-188.008-90
		c-125-26.006-267.998-12.002-362.998,36.992c-72.002,37.002-155,125-197.002,210c-48.994,97.002-65,189.004-58.994,329.004
		c12.002,232.998,118.994,397.998,305.996,471.001c47.998,18.999,76.006,22.998,177.002,22.998c135.996,0,190-15,290-78.999
		c77.002-49.004,97.002-45,147.998,27.998l41.006,59.004L6140,1821.001c-60,50-207.998,117.998-292.998,133.999
		C5752.001,1972.998,5629.003,1972.998,5540,1955z"/>
	<path fill="#083DFF" d="M3800,1870v-90h230h230v-625V530h105h105v625v625h230h230v90v90h-565h-565V1870z"/>
	<path fill="#373A3C" d="M6409.999,1245.996V530h105h105v295v295h82.998c45,0,92.002-2.998,105-5.996
		c16.006-5,84.004-92.002,217.998-281.006c108.008-150,206.006-280,218.008-288.994c17.998-11.006,47.998-14.004,130-12.002
		L7480.995,535l-201.992,280c-111.006,154.004-215,294.004-231.006,310.996l-28.994,31.006l58.994,20.996
		c115,42.002,197.002,116.006,244.004,217.998c20,42.002,22.998,65,22.998,169.004c0,112.002-2.002,124.004-27.998,172.998
		c-52.002,98.003-137.002,160-272.002,198.003c-47.998,13.999-117.998,17.998-347.002,21.997l-287.998,4.004V1245.996z
		 M6954.999,1775c124.004-32.002,189.004-107.998,189.004-225c0.996-87.998-24.004-149.004-80-199.004
		c-69.004-60.996-116.006-72.998-291.006-78.994l-152.998-4.004v261.006V1790h137.998C6849.003,1790,6915.995,1785,6954.999,1775z"
		/>
	<path fill="#373A3C" d="M9930.995,1832.998c-5-20.996-16.992-95-26.992-165l-17.002-125.996L9804.003,1530l-84.004-12.002v-47.002
		c0-25.996,5-51.992,12.002-58.994s40-12.002,80-12.002h67.998v-332.998c0-362.998,5-406.006,57.002-467.002
		c47.002-55.996,97.002-75,197.998-74.004c95,0,170.996,22.002,225,64.004l25,19.004l-27.002,47.998
		c-37.002,67.002-47.998,72.002-100.996,45c-84.004-42.002-156.006-19.004-177.002,55.996c-5.996,22.002-10,162.998-10,340V1400h145
		h145v70v70h-145h-145v165v165h-65h-64.004L9930.995,1832.998z"/>
	<path fill="#373A3C" d="M7889.999,1542.998c-42.002-5.996-142.998-45-180-67.998c-47.002-30-124.004-112.998-147.998-160.996
		c-47.002-93.008-57.002-144.004-57.002-279.004c0-175.996,30.996-269.004,122.998-367.998c85-91.006,185-135,322.002-144.004
		c259.004-15.996,452.002,117.998,510.996,357.002c17.002,70.996,17.002,239.004,0,310c-55,225-240,364.004-480,359.004
		C7944.999,1547.998,7904.003,1545,7889.999,1542.998z M8127.001,1369.004c95.996-49.004,145.996-165,145.996-334.004
		c0-170.996-50-285-147.998-335c-42.002-20.996-62.998-25-135-25s-92.998,4.004-135,25.996
		c-95,48.008-140.996,141.006-152.002,299.004c-12.002,200,57.002,342.998,189.004,385.996
		C7957.001,1407.002,8067.997,1399.004,8127.001,1369.004z"/>
	<path fill="#373A3C" d="M9029.999,1542.998c-42.002-5.996-142.998-45-180-67.998c-47.002-30-124.004-112.998-147.998-160.996
		c-47.002-93.008-57.002-144.004-57.002-279.004c0-175.996,30.996-269.004,122.998-367.998c85-91.006,185-135,322.002-144.004
		c259.004-15.996,452.002,117.998,510.996,357.002c17.002,70.996,17.002,239.004,0,310c-55,225-240,364.004-480,359.004
		C9084.999,1547.998,9044.003,1545,9029.999,1542.998z M9267.001,1369.004c95.996-49.004,145.996-165,145.996-334.004
		c0-170.996-50-285-147.998-335c-42.002-20.996-62.998-25-135-25s-92.998,4.004-135,25.996
		c-95,48.008-140.996,141.006-152.002,299.004c-12.002,200,57.002,342.998,189.004,385.996
		C9097.001,1407.002,9207.997,1399.004,9267.001,1369.004z"/>
</g>
</svg>
